<svg width="500" height="350" viewBox="0 0 500 350" xmlns="http://www.w3.org/2000/svg" role="img" aria-labelledby="title desc">
<title id="title">Bakery Website Project Illustration</title>
<desc id="desc">A soft modern bakery website mockup with cupcakes, custom order form, and product cards.</desc>
<defs>
  <linearGradient id="bg" x1="0" y1="0" x2="1" y2="1"><stop offset="0%" stop-color="#FFF7ED"/><stop offset="48%" stop-color="#FDF2F8"/><stop offset="100%" stop-color="#FEF3C7"/></linearGradient>
  <linearGradient id="accent" x1="0" y1="0" x2="1" y2="1"><stop offset="0%" stop-color="#FB7185"/><stop offset="100%" stop-color="#F59E0B"/></linearGradient>
  <linearGradient id="frosting" x1="0" y1="0" x2="1" y2="1"><stop offset="0%" stop-color="#FBCFE8"/><stop offset="100%" stop-color="#FDBA74"/></linearGradient>
  <filter id="shadow" x="-20%" y="-20%" width="140%" height="140%"><feDropShadow dx="0" dy="12" stdDeviation="14" flood-color="#92400E" flood-opacity="0.18"/></filter>
</defs>
<rect width="500" height="350" rx="32" fill="url(#bg)"/>
<circle cx="83" cy="257" r="62" fill="#FBCFE8" opacity=".55"/>
<circle cx="419" cy="75" r="58" fill="#FED7AA" opacity=".65"/>
<circle cx="61" cy="72" r="7" fill="#FB7185" opacity=".55"/><circle cx="438" cy="252" r="9" fill="#F59E0B" opacity=".45"/><circle cx="397" cy="295" r="5" fill="#FB7185" opacity=".45"/>

<rect x="70" y="55" width="360" height="224" rx="30" fill="#FFFFFF" opacity=".9" filter="url(#shadow)"/>
<rect x="70" y="55" width="360" height="43" rx="30" fill="url(#accent)"/>
<circle cx="100" cy="77" r="6" fill="#FFFFFF" opacity=".9"/><circle cx="121" cy="77" r="6" fill="#FFFFFF" opacity=".72"/><circle cx="142" cy="77" r="6" fill="#FFFFFF" opacity=".52"/>
<text x="250" y="85" text-anchor="middle" font-family="Segoe UI, Arial, sans-serif" font-size="18" font-weight="800" fill="#FFFFFF">Sweet Orders</text>

<g transform="translate(101 122)">
  <rect x="0" y="65" width="104" height="50" rx="12" fill="#FED7AA" stroke="#FDBA74" stroke-width="3"/>
  <path d="M16 68c-11-12-5-29 12-31 4-17 28-19 36-4 16-8 36 3 34 21 13 3 16 21 5 30-21 7-64 8-87-16z" fill="url(#frosting)"/>
  <circle cx="38" cy="42" r="5" fill="#FB7185"/><circle cx="61" cy="34" r="4" fill="#F59E0B"/><circle cx="78" cy="52" r="4" fill="#A78BFA"/>
  <path d="M24 81h56M20 98h64" stroke="#F59E0B" stroke-width="5" stroke-linecap="round" opacity=".45"/>
</g>

<g transform="translate(239 119)">
  <rect width="142" height="25" rx="12.5" fill="#FFF7ED" stroke="#FED7AA" stroke-width="2"/>
  <rect y="42" width="170" height="14" rx="7" fill="#334155" opacity=".88"/>
  <rect y="68" width="138" height="11" rx="5.5" fill="#94A3B8"/>
  <rect y="91" width="158" height="11" rx="5.5" fill="#CBD5E1"/>
  <rect y="126" width="72" height="30" rx="15" fill="#FB7185"/>
  <rect x="84" y="126" width="72" height="30" rx="15" fill="#F59E0B" opacity=".9"/>
  <path d="M17 17h22M53 17h18M87 17h38" stroke="#FB7185" stroke-width="5" stroke-linecap="round"/>
</g>

<g transform="translate(106 247)">
  <rect width="72" height="23" rx="8" fill="#FFE4E6"/><rect x="86" width="72" height="23" rx="8" fill="#FFEDD5"/><rect x="172" width="72" height="23" rx="8" fill="#FEF3C7"/>
  <circle cx="22" cy="12" r="4" fill="#FB7185"/><circle cx="108" cy="12" r="4" fill="#F59E0B"/><circle cx="194" cy="12" r="4" fill="#FB7185"/>
</g>
<text x="250" y="313" text-anchor="middle" font-family="Segoe UI, Arial, sans-serif" font-size="24" font-weight="700" fill="#1E293B">Bakery Website</text>
</svg>
