<svg width="500" height="350" viewBox="0 0 500 350" xmlns="http://www.w3.org/2000/svg" role="img" aria-labelledby="title desc">
<title id="title">Brain Tumor Segmentation Project Illustration</title>
<desc id="desc">A clean medical AI project card with a brain scan, neural nodes, and AI label.</desc>
<defs>
  <linearGradient id="bg" x1="0" y1="0" x2="1" y2="1">
    <stop offset="0%" stop-color="#EEF2FF"/>
    <stop offset="52%" stop-color="#E0F2FE"/>
    <stop offset="100%" stop-color="#FDF2F8"/>
  </linearGradient>
  <linearGradient id="brain" x1="0" y1="0" x2="1" y2="1">
    <stop offset="0%" stop-color="#818CF8"/>
    <stop offset="100%" stop-color="#22D3EE"/>
  </linearGradient>
  <filter id="shadow" x="-20%" y="-20%" width="140%" height="140%">
    <feDropShadow dx="0" dy="12" stdDeviation="14" flood-color="#64748B" flood-opacity="0.22"/>
  </filter>
</defs>
<rect width="500" height="350" rx="32" fill="url(#bg)"/>
<circle cx="92" cy="72" r="42" fill="#C7D2FE" opacity=".55"/>
<circle cx="424" cy="89" r="56" fill="#BAE6FD" opacity=".55"/>
<circle cx="410" cy="258" r="72" fill="#FBCFE8" opacity=".45"/>
<rect x="78" y="58" width="344" height="218" rx="28" fill="#FFFFFF" opacity=".82" filter="url(#shadow)"/>
<rect x="104" y="86" width="145" height="145" rx="26" fill="#F8FAFC" stroke="#CBD5E1" stroke-width="3"/>
<path d="M174 116c-23 0-42 18-42 42 0 16 8 30 21 37 4 13 17 21 31 17 13-4 22-16 21-30 13-8 21-22 21-38 0-25-23-43-52-28Z" fill="url(#brain)" opacity=".92"/>
<path d="M151 149c20-3 32 7 37 22M169 122c-11 16-8 38 7 51M202 139c-16 7-23 19-20 36" fill="none" stroke="#FFFFFF" stroke-width="5" stroke-linecap="round" opacity=".9"/>
<circle cx="205" cy="164" r="15" fill="#FB7185" stroke="#FFFFFF" stroke-width="5"/>
<g stroke="#0EA5E9" stroke-width="4" stroke-linecap="round">
  <path d="M269 121h73M269 158h98M269 195h60"/>
</g>
<g fill="#6366F1">
  <circle cx="269" cy="121" r="7"/><circle cx="342" cy="121" r="7"/>
  <circle cx="269" cy="158" r="7"/><circle cx="367" cy="158" r="7"/>
  <circle cx="269" cy="195" r="7"/><circle cx="329" cy="195" r="7"/>
</g>
<rect x="304" y="219" width="72" height="34" rx="17" fill="#4F46E5"/>
<text x="340" y="242" text-anchor="middle" font-family="Segoe UI, Arial, sans-serif" font-size="19" font-weight="700" fill="#FFFFFF">AI</text>
<text x="250" y="313" text-anchor="middle" font-family="Segoe UI, Arial, sans-serif" font-size="24" font-weight="700" fill="#1E293B">Brain Tumor Segmentation</text>
</svg>