<svg width="500" height="350" viewBox="0 0 500 350" xmlns="http://www.w3.org/2000/svg" role="img" aria-labelledby="title desc">
<title id="title">C Sharp Adventure Game Project Illustration</title>
<desc id="desc">A polished C# game project card with a character, platform, and game UI elements.</desc>
<defs>
  <linearGradient id="bg" x1="0" y1="0" x2="1" y2="1"><stop offset="0%" stop-color="#F5F3FF"/><stop offset="55%" stop-color="#DBEAFE"/><stop offset="100%" stop-color="#ECFDF5"/></linearGradient>
  <linearGradient id="purple" x1="0" y1="0" x2="1" y2="1"><stop offset="0%" stop-color="#7C3AED"/><stop offset="100%" stop-color="#2563EB"/></linearGradient>
  <filter id="shadow" x="-20%" y="-20%" width="140%" height="140%"><feDropShadow dx="0" dy="12" stdDeviation="14" flood-color="#64748B" flood-opacity="0.22"/></filter>
</defs>
<rect width="500" height="350" rx="32" fill="url(#bg)"/>
<circle cx="86" cy="84" r="49" fill="#DDD6FE" opacity=".65"/>
<circle cx="427" cy="111" r="58" fill="#BFDBFE" opacity=".6"/>
<rect x="70" y="62" width="360" height="214" rx="30" fill="#FFFFFF" opacity=".84" filter="url(#shadow)"/>
<rect x="96" y="91" width="86" height="86" rx="22" fill="url(#purple)"/>
<text x="139" y="146" font-family="Segoe UI, Arial, sans-serif" font-size="38" font-weight="800" text-anchor="middle" fill="#FFFFFF">C#</text>
<rect x="205" y="103" width="98" height="118" rx="20" fill="#F8FAFC" stroke="#CBD5E1" stroke-width="3"/>
<circle cx="254" cy="135" r="17" fill="#A78BFA"/>
<rect x="238" y="154" width="32" height="45" rx="12" fill="#7C3AED"/>
<path d="M239 183l-31 25M269 183l31 25" stroke="#7C3AED" stroke-width="9" stroke-linecap="round"/>
<path d="M327 95l17 78 17-78" fill="#22C55E"/>
<rect x="335" y="78" width="20" height="18" rx="5" fill="#16A34A"/>
<rect x="107" y="230" width="286" height="18" rx="9" fill="#94A3B8"/>
<rect x="115" y="214" width="62" height="16" rx="8" fill="#F59E0B"/>
<rect x="326" y="205" width="51" height="25" rx="8" fill="#60A5FA"/>
<text x="250" y="313" text-anchor="middle" font-family="Segoe UI, Arial, sans-serif" font-size="24" font-weight="700" fill="#1E293B">C# Adventure Game</text>
</svg>