<svg width="500" height="350" viewBox="0 0 500 350" xmlns="http://www.w3.org/2000/svg" role="img" aria-labelledby="title desc">
<title id="title">Gold and Oil Analysis Project Illustration</title>
<desc id="desc">A soft modern commodity analytics card with gold bars, an oil drop, charts, and return indicators.</desc>
<defs>
  <linearGradient id="bg" x1="0" y1="0" x2="1" y2="1"><stop offset="0%" stop-color="#FFFBEB"/><stop offset="52%" stop-color="#F8FAFC"/><stop offset="100%" stop-color="#E0F2FE"/></linearGradient>
  <linearGradient id="gold" x1="0" y1="0" x2="1" y2="1"><stop offset="0%" stop-color="#FDE68A"/><stop offset="55%" stop-color="#F59E0B"/><stop offset="100%" stop-color="#B45309"/></linearGradient>
  <linearGradient id="oil" x1="0" y1="0" x2="1" y2="1"><stop offset="0%" stop-color="#64748B"/><stop offset="100%" stop-color="#0F172A"/></linearGradient>
  <filter id="shadow" x="-20%" y="-20%" width="140%" height="140%"><feDropShadow dx="0" dy="12" stdDeviation="14" flood-color="#64748B" flood-opacity="0.22"/></filter>
</defs>
<rect width="500" height="350" rx="32" fill="url(#bg)"/>
<circle cx="87" cy="88" r="55" fill="#FEF3C7" opacity=".8"/>
<circle cx="421" cy="252" r="62" fill="#BAE6FD" opacity=".5"/>
<circle cx="58" cy="258" r="8" fill="#F59E0B" opacity=".45"/><circle cx="438" cy="78" r="7" fill="#0EA5E9" opacity=".35"/><circle cx="392" cy="62" r="5" fill="#F59E0B" opacity=".45"/>

<rect x="70" y="55" width="360" height="224" rx="30" fill="#FFFFFF" opacity=".9" filter="url(#shadow)"/>
<rect x="70" y="55" width="360" height="43" rx="30" fill="#1E293B" opacity=".95"/>
<circle cx="100" cy="77" r="6" fill="#FDE68A" opacity=".95"/><circle cx="121" cy="77" r="6" fill="#CBD5E1" opacity=".85"/><circle cx="142" cy="77" r="6" fill="#94A3B8" opacity=".7"/>
<text x="250" y="85" text-anchor="middle" font-family="Segoe UI, Arial, sans-serif" font-size="18" font-weight="800" fill="#FFFFFF">Gold &amp; Oil Analysis</text>

<g transform="translate(101 120)">
  <path d="M23 77h82l-14 38H7z" fill="url(#gold)" stroke="#D97706" stroke-width="3" stroke-linejoin="round"/>
  <path d="M41 43h82l-14 38H25z" fill="url(#gold)" stroke="#D97706" stroke-width="3" stroke-linejoin="round"/>
  <path d="M52 52h41M32 88h40" stroke="#FFFBEB" stroke-width="4" stroke-linecap="round" opacity=".7"/>
  <path d="M9 33l6 13 13 6-13 6-6 13-6-13-13-6 13-6z" fill="#FBBF24" opacity=".9"/>
</g>

<g transform="translate(322 126)">
  <path d="M37 0c25 34 45 61 45 87 0 28-19 47-45 47S-8 115-8 87C-8 61 12 34 37 0z" fill="url(#oil)"/>
  <path d="M18 69c-8 18-5 34 8 42" fill="none" stroke="#FFFFFF" stroke-width="7" stroke-linecap="round" opacity=".32"/>
  <circle cx="50" cy="92" r="17" fill="#334155" opacity=".45"/>
</g>

<g transform="translate(111 188)">
  <rect width="170" height="55" rx="17" fill="#F8FAFC" stroke="#E2E8F0" stroke-width="3"/>
  <path d="M22 38l24-24 19 17 29-32 24 18 34-38" transform="translate(0 18) scale(.78)" fill="none" stroke="#F59E0B" stroke-width="7" stroke-linecap="round" stroke-linejoin="round"/>
  <path d="M95 38l18-18 17 12 28-28 20 13 24-29" transform="translate(0 18) scale(.78)" fill="none" stroke="#334155" stroke-width="6" stroke-linecap="round" stroke-linejoin="round" opacity=".68"/>
</g>

<g transform="translate(246 123)">
  <g stroke="#CBD5E1" stroke-width="2">
    <path d="M0 0v86M0 86h99"/>
    <path d="M0 56h99M0 28h99" opacity=".65"/>
  </g>
  <rect x="19" y="50" width="16" height="36" rx="5" fill="#FDE68A"/>
  <rect x="45" y="31" width="16" height="55" rx="5" fill="#F59E0B"/>
  <rect x="71" y="17" width="16" height="69" rx="5" fill="#334155" opacity=".8"/>
</g>

<g transform="translate(104 250)">
  <rect width="88" height="25" rx="9" fill="#FEF3C7"/>
  <rect x="102" width="88" height="25" rx="9" fill="#E2E8F0"/>
  <rect x="204" width="92" height="25" rx="9" fill="#DBEAFE"/>
  <path d="M19 17l10-10 10 10M29 7v14" fill="none" stroke="#F59E0B" stroke-width="4" stroke-linecap="round" stroke-linejoin="round"/>
  <text x="50" y="18" font-family="Segoe UI, Arial, sans-serif" font-size="12" font-weight="800" fill="#92400E">GOLD</text>
  <circle cx="124" cy="13" r="7" fill="#334155" opacity=".8"/><text x="154" y="18" font-family="Segoe UI, Arial, sans-serif" font-size="12" font-weight="800" fill="#334155">OIL</text>
  <path d="M227 17h34M227 9h49" stroke="#2563EB" stroke-width="4" stroke-linecap="round" opacity=".7"/>
</g>

<text x="250" y="313" text-anchor="middle" font-family="Segoe UI, Arial, sans-serif" font-size="24" font-weight="700" fill="#1E293B">Gold &amp; Oil Analysis</text>
</svg>
