<svg width="500" height="350" viewBox="0 0 500 350" xmlns="http://www.w3.org/2000/svg"><rect width="500" height="350" rx="28" fill="#111827"/><rect x="55" y="55" width="80" height="80" rx="16" fill="#F7DF1E"/><text x="95" y="109" font-size="42" font-family="Segoe UI" font-weight="700" text-anchor="middle" fill="#111">JS</text><circle cx="330" cy="155" r="48" fill="#F59E0B"/><circle cx="305" cy="128" r="10" fill="#F59E0B"/><circle cx="355" cy="128" r="10" fill="#F59E0B"/><circle cx="317" cy="150" r="4" fill="#111"/><circle cx="343" cy="150" r="4" fill="#111"/><path d="M330 165 Q330 180 315 180" stroke="#111" fill="none" stroke-width="3"/><path d="M330 165 Q330 180 345 180" stroke="#111" fill="none" stroke-width="3"/><circle cx="170" cy="210" r="24" fill="#E5E7EB"/><circle cx="160" cy="193" r="7" fill="#E5E7EB"/><circle cx="180" cy="193" r="7" fill="#E5E7EB"/><circle cx="170" cy="208" r="3" fill="#111"/><path d="M194 208 C230 200 255 170 280 160" stroke="#14B8A6" stroke-width="5" stroke-dasharray="8 8" fill="none"/><text x="250" y="320" fill="white" font-size="24" text-anchor="middle" font-family="Segoe UI">Mouse &amp; Cat Game</text></svg>