<svg width="500" height="350" viewBox="0 0 500 350" xmlns="http://www.w3.org/2000/svg" role="img" aria-labelledby="title desc">
<title id="title">Personalized Player Project Illustration</title>
<desc id="desc">A modern video personalization player with animation layers, JSON data cards, and playback controls.</desc>
<defs>
  <linearGradient id="bg" x1="0" y1="0" x2="1" y2="1"><stop offset="0%" stop-color="#ECFEFF"/><stop offset="50%" stop-color="#EEF2FF"/><stop offset="100%" stop-color="#F5F3FF"/></linearGradient>
  <linearGradient id="accent" x1="0" y1="0" x2="1" y2="1"><stop offset="0%" stop-color="#06B6D4"/><stop offset="100%" stop-color="#8B5CF6"/></linearGradient>
  <filter id="shadow" x="-20%" y="-20%" width="140%" height="140%"><feDropShadow dx="0" dy="12" stdDeviation="14" flood-color="#475569" flood-opacity="0.22"/></filter>
</defs>
<rect width="500" height="350" rx="32" fill="url(#bg)"/>
<circle cx="82" cy="247" r="60" fill="#A5F3FC" opacity=".5"/>
<circle cx="418" cy="82" r="62" fill="#DDD6FE" opacity=".65"/>
<path d="M81 96c22-20 51-18 72 0" fill="none" stroke="#06B6D4" stroke-width="6" stroke-linecap="round" opacity=".35"/>
<path d="M359 269c20 18 49 18 69 0" fill="none" stroke="#8B5CF6" stroke-width="6" stroke-linecap="round" opacity=".35"/>

<rect x="70" y="56" width="360" height="222" rx="30" fill="#FFFFFF" opacity=".9" filter="url(#shadow)"/>
<rect x="70" y="56" width="360" height="43" rx="30" fill="url(#accent)"/>
<circle cx="100" cy="78" r="6" fill="#FFFFFF" opacity=".9"/><circle cx="121" cy="78" r="6" fill="#FFFFFF" opacity=".72"/><circle cx="142" cy="78" r="6" fill="#FFFFFF" opacity=".52"/>
<text x="250" y="85" text-anchor="middle" font-family="Segoe UI, Arial, sans-serif" font-size="18" font-weight="800" fill="#FFFFFF">Personalized Player</text>

<rect x="100" y="124" width="198" height="116" rx="22" fill="#0F172A" opacity=".92"/>
<circle cx="199" cy="182" r="34" fill="#FFFFFF" opacity=".14"/>
<path d="M190 164l34 18-34 18z" fill="#FFFFFF"/>
<rect x="121" y="218" width="135" height="8" rx="4" fill="#475569"/>
<rect x="121" y="218" width="78" height="8" rx="4" fill="url(#accent)"/>
<circle cx="202" cy="222" r="8" fill="#FFFFFF"/>
<path d="M120 145h35M120 160h55" stroke="#67E8F9" stroke-width="5" stroke-linecap="round" opacity=".8"/>

<g transform="translate(324 124)">
  <rect width="76" height="116" rx="18" fill="#F8FAFC" stroke="#CBD5E1" stroke-width="3"/>
  <circle cx="38" cy="32" r="18" fill="url(#accent)" opacity=".9"/>
  <path d="M20 71h36M20 89h24" stroke="#64748B" stroke-width="6" stroke-linecap="round"/>
</g>

<g transform="translate(103 253)">
  <rect width="70" height="22" rx="8" fill="#CFFAFE"/><rect x="84" width="70" height="22" rx="8" fill="#E0E7FF"/><rect x="168" width="70" height="22" rx="8" fill="#F3E8FF"/>
  <path d="M19 14l-6-4 6-4M51 6l6 4-6 4" fill="none" stroke="#0891B2" stroke-width="3" stroke-linecap="round" stroke-linejoin="round"/>
  <circle cx="119" cy="11" r="5" fill="#6366F1"/><path d="M188 7h30M188 15h20" stroke="#8B5CF6" stroke-width="4" stroke-linecap="round"/>
</g>

<path d="M292 150h31M292 181h31M292 212h31" stroke="#8B5CF6" stroke-width="5" stroke-linecap="round" opacity=".55"/>
<path d="M305 150c14 0 14-22 28-22M305 181c16 0 16 0 32 0M305 212c14 0 14 22 28 22" fill="none" stroke="#06B6D4" stroke-width="3" stroke-linecap="round" opacity=".55"/>
<text x="250" y="313" text-anchor="middle" font-family="Segoe UI, Arial, sans-serif" font-size="24" font-weight="700" fill="#1E293B">Personalized Player</text>
</svg>
