<svg width="500" height="350" viewBox="0 0 500 350" xmlns="http://www.w3.org/2000/svg" role="img" aria-labelledby="title desc">
<title id="title">Portfolio Website Project Illustration</title>
<desc id="desc">A modern responsive portfolio website mockup with code, profile card, and project tiles.</desc>
<defs>
  <linearGradient id="bg" x1="0" y1="0" x2="1" y2="1"><stop offset="0%" stop-color="#FDF2F8"/><stop offset="50%" stop-color="#EEF2FF"/><stop offset="100%" stop-color="#E0F2FE"/></linearGradient>
  <linearGradient id="accent" x1="0" y1="0" x2="1" y2="1"><stop offset="0%" stop-color="#EC4899"/><stop offset="100%" stop-color="#6366F1"/></linearGradient>
  <filter id="shadow" x="-20%" y="-20%" width="140%" height="140%"><feDropShadow dx="0" dy="12" stdDeviation="14" flood-color="#64748B" flood-opacity="0.22"/></filter>
</defs>
<rect width="500" height="350" rx="32" fill="url(#bg)"/>
<circle cx="91" cy="252" r="58" fill="#FBCFE8" opacity=".58"/>
<circle cx="420" cy="86" r="61" fill="#C7D2FE" opacity=".56"/>
<rect x="72" y="58" width="356" height="218" rx="30" fill="#FFFFFF" opacity=".88" filter="url(#shadow)"/>
<rect x="72" y="58" width="356" height="42" rx="30" fill="url(#accent)"/>
<circle cx="101" cy="79" r="6" fill="#FFFFFF" opacity=".9"/><circle cx="122" cy="79" r="6" fill="#FFFFFF" opacity=".75"/><circle cx="143" cy="79" r="6" fill="#FFFFFF" opacity=".55"/>
<rect x="104" y="125" width="96" height="96" rx="26" fill="#EEF2FF" stroke="#C7D2FE" stroke-width="3"/>
<circle cx="152" cy="151" r="20" fill="url(#accent)"/>
<path d="M118 210c8-27 60-27 68 0" fill="#C7D2FE"/>
<rect x="225" y="126" width="118" height="13" rx="6.5" fill="#334155"/>
<rect x="225" y="152" width="157" height="11" rx="5.5" fill="#94A3B8"/>
<rect x="225" y="174" width="132" height="11" rx="5.5" fill="#CBD5E1"/>
<rect x="225" y="209" width="68" height="28" rx="14" fill="#6366F1"/>
<rect x="305" y="209" width="68" height="28" rx="14" fill="#F472B6"/>
<g transform="translate(106 242)">
  <rect width="74" height="22" rx="8" fill="#DBEAFE"/><rect x="86" width="74" height="22" rx="8" fill="#DCFCE7"/><rect x="172" width="74" height="22" rx="8" fill="#FAE8FF"/>
</g>
<path d="M376 123l-18 20 18 20M395 123l18 20-18 20" fill="none" stroke="#6366F1" stroke-width="7" stroke-linecap="round" stroke-linejoin="round"/>
<text x="250" y="313" text-anchor="middle" font-family="Segoe UI, Arial, sans-serif" font-size="24" font-weight="700" fill="#1E293B">Portfolio Website</text>
</svg>