<svg width="500" height="350" viewBox="0 0 500 350" xmlns="http://www.w3.org/2000/svg" role="img" aria-labelledby="title desc">
<title id="title">AI Stock Analysis Project Illustration</title>
<desc id="desc">A clean finance analytics card with a rising line chart, bars, and AI labels.</desc>
<defs>
  <linearGradient id="bg" x1="0" y1="0" x2="1" y2="1"><stop offset="0%" stop-color="#ECFDF5"/><stop offset="55%" stop-color="#E0F2FE"/><stop offset="100%" stop-color="#EEF2FF"/></linearGradient>
  <filter id="shadow" x="-20%" y="-20%" width="140%" height="140%"><feDropShadow dx="0" dy="12" stdDeviation="14" flood-color="#64748B" flood-opacity="0.22"/></filter>
</defs>
<rect width="500" height="350" rx="32" fill="url(#bg)"/>
<circle cx="96" cy="93" r="50" fill="#BBF7D0" opacity=".6"/>
<circle cx="421" cy="85" r="54" fill="#BFDBFE" opacity=".56"/>
<rect x="68" y="62" width="364" height="214" rx="30" fill="#FFFFFF" opacity=".86" filter="url(#shadow)"/>
<g stroke="#CBD5E1" stroke-width="2">
  <path d="M110 105v126M110 231h282"/>
  <path d="M110 189h282M110 147h282" opacity=".65"/>
</g>
<rect x="137" y="181" width="34" height="50" rx="8" fill="#93C5FD"/>
<rect x="199" y="158" width="34" height="73" rx="8" fill="#A7F3D0"/>
<rect x="261" y="129" width="34" height="102" rx="8" fill="#C4B5FD"/>
<rect x="323" y="104" width="34" height="127" rx="8" fill="#FDBA74"/>
<polyline points="122,207 168,187 214,194 263,147 319,129 373,94" fill="none" stroke="#16A34A" stroke-width="7" stroke-linecap="round" stroke-linejoin="round"/>
<circle cx="373" cy="94" r="9" fill="#16A34A" stroke="#FFFFFF" stroke-width="4"/>
<rect x="293" y="77" width="55" height="30" rx="15" fill="#4F46E5"/>
<text x="320.5" y="98" font-family="Segoe UI, Arial, sans-serif" font-size="16" font-weight="700" text-anchor="middle" fill="#FFFFFF">AI</text>
<text x="250" y="313" text-anchor="middle" font-family="Segoe UI, Arial, sans-serif" font-size="24" font-weight="700" fill="#1E293B">AI Stock Analysis</text>
</svg>