<svg width="500" height="350" viewBox="0 0 500 350" xmlns="http://www.w3.org/2000/svg" role="img" aria-labelledby="title desc">
<title id="title">Thrift Shop GPS Website Project Illustration</title>
<desc id="desc">A light portfolio-style illustration of a GPS map interface showing nearby thrift stores.</desc>
<defs>
  <linearGradient id="bg" x1="0" y1="0" x2="1" y2="1"><stop offset="0%" stop-color="#F0FDF4"/><stop offset="52%" stop-color="#ECFEFF"/><stop offset="100%" stop-color="#EEF2FF"/></linearGradient>
  <linearGradient id="accent" x1="0" y1="0" x2="1" y2="1"><stop offset="0%" stop-color="#22C55E"/><stop offset="100%" stop-color="#06B6D4"/></linearGradient>
  <filter id="shadow" x="-20%" y="-20%" width="140%" height="140%"><feDropShadow dx="0" dy="12" stdDeviation="14" flood-color="#64748B" flood-opacity="0.22"/></filter>
</defs>
<rect width="500" height="350" rx="32" fill="url(#bg)"/>
<circle cx="92" cy="250" r="58" fill="#BBF7D0" opacity=".58"/>
<circle cx="420" cy="88" r="60" fill="#A5F3FC" opacity=".55"/>
<path d="M79 103c24-19 54-18 76 0" fill="none" stroke="#22C55E" stroke-width="6" stroke-linecap="round" opacity=".32"/>
<path d="M355 268c22 17 51 17 73 0" fill="none" stroke="#06B6D4" stroke-width="6" stroke-linecap="round" opacity=".32"/>

<rect x="70" y="58" width="360" height="218" rx="30" fill="#FFFFFF" opacity=".88" filter="url(#shadow)"/>
<rect x="70" y="58" width="360" height="42" rx="30" fill="url(#accent)"/>
<circle cx="100" cy="79" r="6" fill="#FFFFFF" opacity=".9"/>
<circle cx="121" cy="79" r="6" fill="#FFFFFF" opacity=".74"/>
<circle cx="142" cy="79" r="6" fill="#FFFFFF" opacity=".55"/>
<text x="250" y="85" text-anchor="middle" font-family="Segoe UI, Arial, sans-serif" font-size="18" font-weight="800" fill="#FFFFFF">Thrift GPS</text>

<g transform="translate(101 122)">
  <rect width="183" height="116" rx="24" fill="#F8FAFC" stroke="#CBD5E1" stroke-width="3"/>
  <path d="M21 28c34 20 57 14 84-3 27-17 39-16 58 0" fill="none" stroke="#BAE6FD" stroke-width="12" stroke-linecap="round" opacity=".9"/>
  <path d="M27 89c30-23 53-20 76-2 24 18 42 19 63-2" fill="none" stroke="#BBF7D0" stroke-width="12" stroke-linecap="round" opacity=".9"/>
  <path d="M31 19v79M75 12v91M119 20v79M162 12v91" stroke="#E2E8F0" stroke-width="3" stroke-linecap="round"/>
  <path d="M16 36h150M16 72h150" stroke="#E2E8F0" stroke-width="3" stroke-linecap="round"/>
  <path d="M94 31c-19 0-34 15-34 34 0 26 34 57 34 57s34-31 34-57c0-19-15-34-34-34z" fill="url(#accent)"/>
  <circle cx="94" cy="65" r="13" fill="#FFFFFF" opacity=".95"/>
</g>

<g transform="translate(304 122)">
  <rect width="86" height="116" rx="20" fill="#F8FAFC" stroke="#CBD5E1" stroke-width="3"/>
  <rect x="19" y="28" width="48" height="42" rx="8" fill="#DCFCE7"/>
  <path d="M24 39h38M24 51h38" stroke="#22C55E" stroke-width="5" stroke-linecap="round" opacity=".85"/>
  <path d="M24 70h38v15c0 7-5 12-12 12H36c-7 0-12-5-12-12V70z" fill="#FFFFFF" stroke="#94A3B8" stroke-width="3"/>
  <path d="M28 70v-8c0-10 7-17 15-17s15 7 15 17v8" fill="none" stroke="#334155" stroke-width="5" stroke-linecap="round"/>
  <circle cx="43" cy="83" r="4" fill="#06B6D4"/>
</g>

<g transform="translate(101 252)">
  <rect width="76" height="22" rx="8" fill="#DCFCE7"/>
  <rect x="88" width="76" height="22" rx="8" fill="#CFFAFE"/>
  <rect x="176" width="76" height="22" rx="8" fill="#E0E7FF"/>
  <path d="M22 14h26M22 8h18" stroke="#16A34A" stroke-width="4" stroke-linecap="round"/>
  <circle cx="126" cy="11" r="6" fill="#06B6D4"/>
  <path d="M197 7h32M197 15h22" stroke="#6366F1" stroke-width="4" stroke-linecap="round"/>
</g>

<path d="M287 151h18M287 181h18M287 211h18" stroke="#06B6D4" stroke-width="5" stroke-linecap="round" opacity=".52"/>
<text x="250" y="313" text-anchor="middle" font-family="Segoe UI, Arial, sans-serif" font-size="24" font-weight="700" fill="#1E293B">Thrift Shop GPS</text>
</svg>
